<?xml version="1.0" ?><!DOCTYPE svg  PUBLIC '-//W3C//DTD SVG 1.1//EN'  'http://www.w3.org/Graphics/SVG/1.1/DTD/svg11.dtd'><svg enable-background="new 0 0 500 500" height="500px" id="Layer_1" version="1.1" viewBox="0 0 500 500" width="500px" xml:space="preserve" xmlns="http://www.w3.org/2000/svg" xmlns:xlink="http://www.w3.org/1999/xlink"><g><path d="M249,141.68c-59.415,0-107.58,48.165-107.58,107.58S189.585,356.84,249,356.84s107.58-48.165,107.58-107.58   S308.415,141.68,249,141.68z M222.36,163.989c-1.11,1.44-2.229,2.944-3.348,4.523c-3.996,5.636-8.252,12.567-12.13,20.753   c-6.408-2.564-11.847-5.421-16.197-8.04C200.055,173.302,210.804,167.474,222.36,163.989z M183.105,189.143   c5.059,3.234,11.71,7.272,19.778,10.51c-4.99,12.863-8.757,29.347-9.491,46.347h-34.343   C160.206,226,168.627,204.552,183.105,189.143z M159.049,256h34.253c0.435,19,3.999,32.697,8.871,45.564   c-7.75,3.167-14.158,7.076-19.068,10.216C168.626,296.371,160.206,278,159.049,256z M190.662,317.895   c4.172-2.518,9.352-5.256,15.44-7.74c4.098,8.746,8.679,16.036,12.963,21.854c0.7,0.951,1.4,1.869,2.098,2.766   C210.052,331.251,199.712,325.553,190.662,317.895z M244,338.807c-2-0.105-4.176-0.269-6.063-0.492   c-6.858-7.068-15.025-17.52-21.768-31.551c8.106-2.479,16.831-4.295,27.831-4.693V338.807z M244,292.025   c-13,0.414-22.826,3.242-32.021,6.134c-4.605-12.07-8.21-25.159-8.635-42.159H244V292.025z M244,246h-40.567   c0.732-16,4.639-31.458,9.286-43.361c9.023,2.774,20.281,4.072,31.281,4.475V246z M244,197.068c-10-0.388-19.29-2.111-27.215-4.478   c3.397-7.022,6.89-13.011,10.354-17.93c3.91-5.552,8.111-10.189,11.621-13.916c1.646-0.182,3.24-0.32,5.24-0.412V197.068z    M305.658,181.031c-4.372,2.555-9.798,5.348-16.137,7.881c-3.832-8.03-8.022-14.845-11.96-20.4   c-1.119-1.578-2.237-3.083-3.348-4.523C285.676,167.445,296.344,173.207,305.658,181.031z M253,160.332   c3,0.092,3.472,0.23,5.118,0.412c3.51,3.727,7.514,8.363,11.423,13.916c3.409,4.842,6.91,10.718,10.263,17.597   c-7.93,2.411-16.804,4.218-26.804,4.741V160.332z M253,207.046c12-0.546,21.898-1.93,30.934-4.751   c4.714,11.972,8.468,27.704,9.208,43.704H253V207.046z M253,256h40.231c-0.385,16-3.318,29.135-8.47,42.537   c-9.231-2.952-18.761-5.882-31.761-6.444V256z M258.89,338.31c-1.9,0.226-2.89,0.391-5.89,0.497v-36.666   c12,0.543,19.571,2.463,27.713,5.008c-3.138,6.459-6.862,12.649-11.177,18.552C265.885,330.698,262.216,334.895,258.89,338.31z    M275.411,334.774c0.698-0.897,1.398-1.815,2.098-2.766c4.221-5.732,8.73-12.894,12.781-21.469   c6.009,2.449,11.176,5.118,15.368,7.568C296.669,325.659,286.418,331.284,275.411,334.774z M313.293,311.615   c-4.929-3.06-11.337-6.189-19.033-9.329c4.944-12.941,8.572-27.286,9.011-46.286h34.253   C336.363,278,327.881,296.179,313.293,311.615z M303.182,246c-0.742-17-4.574-34.136-9.635-47.074   c8.015-3.214,14.666-6.456,19.746-9.61C327.88,204.753,336.363,226,337.525,246H303.182z" fill="#231F20"/></g></svg>